<svg width="391" height="438" viewBox="0 0 391 438" fill="none" xmlns="http://www.w3.org/2000/svg">
<path d="M36 267C36 175.873 109.873 102 201 102H206.593C297.72 102 371.593 175.873 371.593 267V272.593C371.593 363.72 297.72 437.593 206.593 437.593H201C109.873 437.593 36 363.72 36 272.593V267Z" fill="white"/>
<path d="M111.25 269.182C111.25 251.904 115.464 236.154 123.892 221.932C132.32 207.71 143.645 196.385 157.868 187.957C172.09 179.529 187.84 175.315 205.117 175.315C220.077 175.315 233.878 178.528 246.52 184.954C259.267 191.381 269.802 200.177 278.125 211.344C286.448 222.406 291.61 234.943 293.612 248.955H255.369C253.262 238.103 247.415 229.254 237.828 222.406C228.242 215.453 217.338 211.977 205.117 211.977C194.582 211.977 184.995 214.558 176.357 219.72C167.718 224.882 160.817 231.782 155.655 240.421C150.493 249.06 147.912 258.647 147.912 269.182C147.912 279.717 150.493 289.304 155.655 297.942C160.817 306.581 167.718 313.482 176.357 318.644C184.995 323.806 194.582 326.387 205.117 326.387C217.338 326.387 227.662 322.963 236.09 316.115C244.624 309.162 249.996 300.26 252.209 289.409H290.451C288.449 303.421 283.551 316.01 275.755 327.177C267.959 338.239 257.95 346.983 245.73 353.409C233.614 359.836 220.077 363.049 205.117 363.049C187.84 363.049 172.09 358.835 157.868 350.407C143.645 341.979 132.32 330.654 123.892 316.431C115.464 302.209 111.25 286.459 111.25 269.182ZM203.537 436.057C180.571 436.057 158.974 431.737 138.746 423.099C118.625 414.46 100.873 402.503 85.4918 387.227C70.216 371.846 58.2061 354.094 49.462 333.972C40.8233 313.85 36.5566 292.254 36.6619 269.182C36.7673 246.11 41.1393 224.513 49.7781 204.391C58.5221 184.269 70.5321 166.571 85.8079 151.295C101.084 135.914 118.783 123.904 138.904 115.265C159.026 106.626 180.571 102.307 203.537 102.307C226.609 102.307 248.205 106.626 268.327 115.265C288.555 123.904 306.254 135.914 321.424 151.295C336.7 166.571 348.657 184.269 357.296 204.391C365.935 224.513 370.307 246.11 370.412 269.182C370.517 292.254 366.251 313.85 357.612 333.972C348.973 354.094 337.016 371.846 321.74 387.227C306.464 402.503 288.713 414.46 268.485 423.099C248.258 431.737 226.609 436.057 203.537 436.057ZM203.537 399.395C221.552 399.395 238.461 396.024 254.263 389.281C270.066 382.539 283.919 373.215 295.824 361.311C307.728 349.406 317.052 335.605 323.794 319.908C330.537 304.105 333.855 287.249 333.75 269.34C333.645 251.325 330.221 234.416 323.478 218.614C316.736 202.811 307.412 188.957 295.508 177.053C283.603 165.148 269.802 155.825 254.105 149.082C238.408 142.34 221.552 138.969 203.537 138.969C185.627 138.969 168.824 142.34 153.127 149.082C137.43 155.825 123.629 165.201 111.724 177.211C99.8195 189.116 90.4433 202.969 83.5955 218.772C76.8531 234.469 73.4292 251.325 73.3239 269.34C73.2185 287.144 76.5371 303.947 83.2795 319.75C90.0219 335.447 99.3454 349.248 111.25 361.153C123.26 373.057 137.114 382.433 152.811 389.281C168.613 396.024 185.522 399.395 203.537 399.395Z" fill="black"/>
</svg>
